<?xml version="1.0" encoding="utf-8"?>
<svg xmlns="http://www.w3.org/2000/svg" viewBox="115.69 119.892 525.763 75.6" width="525.763px" height="75.6px"><path d="M 150.425 194.166 L 115.69 119.892 L 128.371 119.892 L 155.554 182.86 L 156.843 182.856 L 179.672 119.892 L 192.267 119.892 L 161.376 194.166 L 150.425 194.166 Z M 249.117 120.733 L 280.797 194.166 L 268.723 194.166 L 239.243 132.273 L 210.244 194.166 L 197.693 194.166 L 232.436 120.733 L 249.117 120.733 Z M 295.337 122.874 L 358.541 122.874 L 358.541 130.195 L 295.337 130.195 L 295.337 122.874 Z M 295.337 184.045 L 358.541 184.045 L 358.541 191.363 L 295.337 191.363 L 295.337 184.045 Z M 295.337 154.628 L 349.826 154.628 L 349.826 160.294 L 295.337 160.294 L 295.337 154.628 Z M 380.481 158.739 C 380.655 146.635 384.38 137.162 391.643 130.325 C 395.402 126.788 403.665 121.266 417.438 120.344 C 428.734 119.589 436.448 122.877 440.504 125.551 C 446.722 129.655 449.988 132.851 453.022 138.325 C 456.273 144.198 457.547 150.602 457.444 157.894 C 457.329 165.294 455.584 171.905 452.214 177.741 C 448.84 183.574 444.118 188.007 438.026 190.989 C 431.941 193.989 425.404 195.492 418.419 195.492 C 410.842 195.492 404.098 193.841 398.183 190.515 C 392.261 187.196 387.81 182.674 384.817 176.934 C 381.836 171.201 380.381 165.131 380.481 158.739 Z M 388.658 156.676 C 388.002 173.308 399.594 187.915 418.99 187.548 C 438.17 187.185 450.018 176.278 449.985 156.187 C 449.962 142.528 439.944 127.577 419.616 127.37 C 401.124 127.181 389.354 138.939 388.658 156.676 Z M 606.355 120.559 L 641.453 194.166 L 629.391 194.166 L 599.9 132.273 L 570.964 194.166 L 558.35 194.166 L 593.378 120.559 L 606.355 120.559 Z M 492.883 161.257 L 492.916 194.166 L 480.05 194.166 L 480.242 120.414 L 516.537 120.685 C 521.496 120.722 525.748 121.029 529.233 122.688 C 532.725 124.351 535.395 126.725 537.243 129.833 C 539.095 132.929 540.017 136.651 540.021 140.973 C 540.025 146.654 538.343 151.276 534.977 154.835 C 531.607 158.394 526.729 160.468 520.344 161.061 L 545.965 194.166 L 534.236 194.166 L 512.9 161.427 L 492.883 161.257 Z M 492.883 156.039 L 516.559 156.239 C 520.092 156.265 523.003 155.739 525.329 154.654 C 527.633 153.58 529.377 152.057 530.555 150.109 C 531.736 148.172 532.329 145.961 532.321 143.473 L 532.325 138.473 C 532.325 135.988 531.736 133.766 530.558 131.799 C 529.381 129.84 527.633 128.307 525.322 127.184 C 523.007 126.07 520.085 125.496 516.555 125.473 L 492.883 125.27 L 492.883 156.039 Z" style="text-wrap-mode: nowrap; stroke-width: 3.70352;" id="object-0"/></svg>