<?xml version="1.0" encoding="utf-8"?>
<svg xmlns="http://www.w3.org/2000/svg" viewBox="173.93 116.22 63 75.6" width="63px" height="75.6px"><path d="M 205.421 116.22 L 236.765 134.869 L 205.429 154.02 L 174.014 134.911 L 205.421 116.22 Z M 191.729 134.818 L 205.545 143.256 L 219.294 135.026 L 205.499 127.324 L 191.729 134.818 Z M 186.66 172.193 L 186.69 191.82 L 174.001 184.061 L 174.087 164.371 L 186.66 172.193 Z M 173.93 143.883 L 205.448 163.421 L 236.93 144.191 L 236.887 155.459 L 205.492 174.879 L 174.21 155.459 L 173.93 143.883 Z M 236.866 164.687 L 236.643 183.781 L 224.178 191.82 L 224.209 172.005 L 236.866 164.687 Z" style="stroke: rgba(0, 0, 0, 0); mix-blend-mode: multiply;" id="object-0" transform="matrix(1, 0, 0, 1, 1.1368683772161603e-13, 1.1368683772161603e-13)"/></svg>